<svg width="1000" height="1000" viewBox="0 0 1000 1000" fill="none" xmlns="http://www.w3.org/2000/svg">
<g clip-path="url(#clip0_0_1)">
<circle cx="500" cy="500" r="500" fill="#F4D481"/>
<path d="M320 894C295.333 894 278.667 887.667 270 875C261.333 862.333 257 848.333 257 833V159C257 143.667 261.333 130 270 118C278.667 105.333 295.333 99 320 99H668C692.667 99 705.667 115.667 707 149C708.333 183 695.333 200 668 200H375V793H686C710.667 793 723.333 809.333 724 842C725.333 876.667 712.667 894 686 894H320ZM631 480C631 503.333 622.667 523 606 539C590 555 570.333 563 547 563C524.333 563 505 555 489 539C473 523 465 503.333 465 480C465 456.667 473 437 489 421C505 405 524.333 397 547 397C570.333 397 590 405 606 421C622.667 437 631 456.667 631 480Z" fill="#403E3D"/>
</g>
<defs>
<clipPath id="clip0_0_1">
<rect width="1000" height="1000" fill="white"/>
</clipPath>
</defs>
</svg>
