<svg width="1000" height="1000" viewBox="0 0 1000 1000" fill="none" xmlns="http://www.w3.org/2000/svg">
<g clip-path="url(#clip0_0_1)">
<circle cx="500" cy="500" r="500" fill="#F4D481"/>
<path d="M344.6 844.9C322.4 844.9 307.4 839.2 299.6 827.8C291.8 816.4 287.9 803.8 287.9 790V183.4C287.9 169.6 291.8 157.3 299.6 146.5C307.4 135.1 322.4 129.4 344.6 129.4H657.8C680 129.4 691.7 144.4 692.9 174.4C694.1 205 682.4 220.3 657.8 220.3H394.1V754H674C696.2 754 707.6 768.7 708.2 798.1C709.4 829.3 698 844.9 674 844.9H344.6ZM624.5 472.3C624.5 493.3 617 511 602 525.4C587.6 539.8 569.9 547 548.9 547C528.5 547 511.1 539.8 496.7 525.4C482.3 511 475.1 493.3 475.1 472.3C475.1 451.3 482.3 433.6 496.7 419.2C511.1 404.8 528.5 397.6 548.9 397.6C569.9 397.6 587.6 404.8 602 419.2C617 433.6 624.5 451.3 624.5 472.3Z" fill="#403E3D"/>
</g>
<defs>
<clipPath id="clip0_0_1">
<rect width="1000" height="1000" fill="white"/>
</clipPath>
</defs>
</svg>
